# xmcd CD database file
#
# Track frame offsets:
#	150
#	17833
#	38243
#	65920
#	94933
#	114933
#	138525
#	154098
#	179620
#	200758
#
# Disc length: 3003 seconds
#
# Revision: 0
# Processed by: cddbd v1.5.1PL0 Copyright (c) Steve Scherf et al.
# Submitted via: CDex 1.51
#
DISCID=920bb90a
DTITLE=Various Artist - THE END OF THE CENTURY ROCKERS ?
DYEAR=1996
DGENRE=Rock
TTITLE0=MEMORIES
TTITLE1=FLASH BACK
TTITLE2=時の鍵
TTITLE3=砂上の楼閣
TTITLE4=カルマ-因果応報-
TTITLE5=SEPIA
TTITLE6=Get Down,Break it Down
TTITLE7=傷だらけのSilent Days
TTITLE8=Moon Stone
TTITLE9=escape
EXTD=YEAR: 1996
EXTT0=
EXTT1=
EXTT2=
EXTT3=
EXTT4=
EXTT5=
EXTT6=
EXTT7=
EXTT8=
EXTT9=
PLAYORDER=
